<?xml version="1.0" encoding="utf-8"?>
<!-- Generator: Adobe Illustrator 19.0.0, SVG Export Plug-In . SVG Version: 6.00 Build 0)  -->
<svg version="1.1" id="Layer_1" xmlns="http://www.w3.org/2000/svg" xmlns:xlink="http://www.w3.org/1999/xlink" x="0px" y="0px"
	 width="1400px" height="1400px" viewBox="0 0 1400 1400" enable-background="new 0 0 1400 1400" xml:space="preserve">
<linearGradient id="XMLID_9_" gradientUnits="userSpaceOnUse" x1="700" y1="1784.0452" x2="700" y2="-151.701">
	<stop  offset="0" style="stop-color:#FFFFBD"/>
	<stop  offset="0.1411" style="stop-color:#FFA28C"/>
	<stop  offset="0.2772" style="stop-color:#E87988"/>
	<stop  offset="0.6436" style="stop-color:#154666"/>
	<stop  offset="0.9247" style="stop-color:#00364F"/>
</linearGradient>
<rect id="XMLID_452_" fill="url(#XMLID_9_)" width="1400" height="1400"/>
<g id="XMLID_80_" opacity="0.38">
	<linearGradient id="XMLID_10_" gradientUnits="userSpaceOnUse" x1="700.4319" y1="-329.1799" x2="698.4319" y2="610.8201">
		<stop  offset="0" style="stop-color:#FFA28C"/>
		<stop  offset="0.3065" style="stop-color:#FF7F8C"/>
		<stop  offset="0.7481" style="stop-color:#0F4565"/>
		<stop  offset="1" style="stop-color:#00364F;stop-opacity:0"/>
	</linearGradient>
	<rect id="XMLID_149_" y="184.9" fill="url(#XMLID_10_)" width="1398.6" height="20.6"/>
	<linearGradient id="XMLID_11_" gradientUnits="userSpaceOnUse" x1="700.5278" y1="-329.1797" x2="698.5278" y2="610.8203">
		<stop  offset="0" style="stop-color:#FFA28C"/>
		<stop  offset="0.3065" style="stop-color:#FF7F8C"/>
		<stop  offset="0.7481" style="stop-color:#0F4565"/>
		<stop  offset="1" style="stop-color:#00364F;stop-opacity:0"/>
	</linearGradient>
	<rect id="XMLID_148_" y="231.1" fill="url(#XMLID_11_)" width="1398.6" height="18.3"/>
	<linearGradient id="XMLID_12_" gradientUnits="userSpaceOnUse" x1="700.6237" y1="-329.1795" x2="698.6237" y2="610.8205">
		<stop  offset="0" style="stop-color:#FFA28C"/>
		<stop  offset="0.3065" style="stop-color:#FF7F8C"/>
		<stop  offset="0.7481" style="stop-color:#0F4565"/>
		<stop  offset="1" style="stop-color:#00364F;stop-opacity:0"/>
	</linearGradient>
	<rect id="XMLID_147_" y="277.4" fill="url(#XMLID_12_)" width="1398.6" height="16"/>
	<linearGradient id="XMLID_13_" gradientUnits="userSpaceOnUse" x1="700.7196" y1="-329.1793" x2="698.7196" y2="610.8207">
		<stop  offset="0" style="stop-color:#FFA28C"/>
		<stop  offset="0.3065" style="stop-color:#FF7F8C"/>
		<stop  offset="0.7481" style="stop-color:#0F4565"/>
		<stop  offset="1" style="stop-color:#00364F;stop-opacity:0"/>
	</linearGradient>
	<rect id="XMLID_143_" y="323.6" fill="url(#XMLID_13_)" width="1398.6" height="13.7"/>
	<linearGradient id="XMLID_14_" gradientUnits="userSpaceOnUse" x1="700.8156" y1="-329.1791" x2="698.8156" y2="610.8209">
		<stop  offset="0" style="stop-color:#FFA28C"/>
		<stop  offset="0.3065" style="stop-color:#FF7F8C"/>
		<stop  offset="0.7481" style="stop-color:#0F4565"/>
		<stop  offset="1" style="stop-color:#00364F;stop-opacity:0"/>
	</linearGradient>
	<rect id="XMLID_141_" y="369.8" fill="url(#XMLID_14_)" width="1398.6" height="11.4"/>
	<linearGradient id="XMLID_15_" gradientUnits="userSpaceOnUse" x1="700.9114" y1="-329.1789" x2="698.9114" y2="610.8211">
		<stop  offset="0" style="stop-color:#FFA28C"/>
		<stop  offset="0.3065" style="stop-color:#FF7F8C"/>
		<stop  offset="0.7481" style="stop-color:#0F4565"/>
		<stop  offset="1" style="stop-color:#00364F;stop-opacity:0"/>
	</linearGradient>
	<rect id="XMLID_95_" y="416.1" fill="url(#XMLID_15_)" width="1398.6" height="9.1"/>
	<linearGradient id="XMLID_16_" gradientUnits="userSpaceOnUse" x1="701.0074" y1="-329.1787" x2="699.0074" y2="610.8213">
		<stop  offset="0" style="stop-color:#FFA28C"/>
		<stop  offset="0.3065" style="stop-color:#FF7F8C"/>
		<stop  offset="0.7481" style="stop-color:#0F4565"/>
		<stop  offset="1" style="stop-color:#00364F;stop-opacity:0"/>
	</linearGradient>
	<rect id="XMLID_87_" y="462.3" fill="url(#XMLID_16_)" width="1398.6" height="6.8"/>
	<linearGradient id="XMLID_17_" gradientUnits="userSpaceOnUse" x1="701.1033" y1="-329.1785" x2="699.1033" y2="610.8215">
		<stop  offset="0" style="stop-color:#FFA28C"/>
		<stop  offset="0.3065" style="stop-color:#FF7F8C"/>
		<stop  offset="0.7481" style="stop-color:#0F4565"/>
		<stop  offset="1" style="stop-color:#00364F;stop-opacity:0"/>
	</linearGradient>
	<rect id="XMLID_84_" y="508.5" fill="url(#XMLID_17_)" width="1398.6" height="4.5"/>
	<linearGradient id="XMLID_18_" gradientUnits="userSpaceOnUse" x1="700.0482" y1="-329.1808" x2="698.0482" y2="610.8193">
		<stop  offset="0" style="stop-color:#FFA28C"/>
		<stop  offset="0.3065" style="stop-color:#FF7F8C"/>
		<stop  offset="0.7481" style="stop-color:#0F4565"/>
		<stop  offset="1" style="stop-color:#00364F;stop-opacity:0"/>
	</linearGradient>
	<rect id="XMLID_161_" y="0" fill="url(#XMLID_18_)" width="1398.6" height="29.8"/>
	<linearGradient id="XMLID_19_" gradientUnits="userSpaceOnUse" x1="700.1442" y1="-329.1805" x2="698.1442" y2="610.8195">
		<stop  offset="0" style="stop-color:#FFA28C"/>
		<stop  offset="0.3065" style="stop-color:#FF7F8C"/>
		<stop  offset="0.7481" style="stop-color:#0F4565"/>
		<stop  offset="1" style="stop-color:#00364F;stop-opacity:0"/>
	</linearGradient>
	<rect id="XMLID_160_" y="46.2" fill="url(#XMLID_19_)" width="1398.6" height="27.5"/>
	<linearGradient id="XMLID_20_" gradientUnits="userSpaceOnUse" x1="700.2401" y1="-329.1803" x2="698.2401" y2="610.8196">
		<stop  offset="0" style="stop-color:#FFA28C"/>
		<stop  offset="0.3065" style="stop-color:#FF7F8C"/>
		<stop  offset="0.7481" style="stop-color:#0F4565"/>
		<stop  offset="1" style="stop-color:#00364F;stop-opacity:0"/>
	</linearGradient>
	<rect id="XMLID_159_" y="92.5" fill="url(#XMLID_20_)" width="1398.6" height="25.2"/>
	<linearGradient id="XMLID_21_" gradientUnits="userSpaceOnUse" x1="700.3359" y1="-329.1801" x2="698.3359" y2="610.8199">
		<stop  offset="0" style="stop-color:#FFA28C"/>
		<stop  offset="0.3065" style="stop-color:#FF7F8C"/>
		<stop  offset="0.7481" style="stop-color:#0F4565"/>
		<stop  offset="1" style="stop-color:#00364F;stop-opacity:0"/>
	</linearGradient>
	<rect id="XMLID_155_" y="138.7" fill="url(#XMLID_21_)" width="1398.6" height="22.9"/>
</g>
<g id="XMLID_71_">
	<defs>
		<rect id="XMLID_70_" width="1400" height="1400"/>
	</defs>
	<clipPath id="XMLID_22_">
		<use xlink:href="#XMLID_70_"  overflow="visible"/>
	</clipPath>
	<linearGradient id="XMLID_23_" gradientUnits="userSpaceOnUse" x1="619.97" y1="1167.8658" x2="619.97" y2="391.9069">
		<stop  offset="0.6386" style="stop-color:#154666;stop-opacity:0"/>
		<stop  offset="0.9247" style="stop-color:#00364F"/>
	</linearGradient>
	<path id="XMLID_541_" clip-path="url(#XMLID_22_)" fill="url(#XMLID_23_)" d="M1458,374.3h-149.3v255.8h-81.8v-76.9h-45.3V606H1065
		v49.6h-66.3V543.9h-33.3v-36h-59.2v32.3h-39.4v-59.6l-69.7-69.7v-132c-4.8-4.8-11.1,0-11.1,0v106.8L748.7,423v261.8h-72.1v-85
		h-47.2V374.3H480.1v255.8h-81.8V416.3h-45.3V469H236.3v49.6h-73.5c0,0,0,9.5,0,25.3h-26.1v-36H77.5v32.3H38.1v-59.6v-69.7v-132
		h-80.8v106.8L-80,423v261.8h-72.1v-85h-65.9v378h165.8V863.7l73.5,17.4v54.7h148.8v-39.6l200.6,39.3v58.2h146.9V886h93.2v91.8
		h165.8V863.7l73.5,17.4v54.7h148.8v-39.6l200.6,39.3v58.2h146.9V886H1458V374.3z"/>
</g>
<g id="XMLID_68_">
	<path id="XMLID_244_" fill="#00364F" d="M661.8,745.4c-0.3-10.7,13.2-22.2,55.9-22.2c42.7,0,54.5,15.4,52.1,24.3
		c-2.4,8.9,17.9-11.8,13.9-21.1c-4-9.3,49.3-34.9-26.7-32.1s-99.5-7.7-114,7.4s-18.1,11.3-5.1,25.3S661.8,745.4,661.8,745.4z"/>
	<g id="XMLID_27_">
		<g id="XMLID_4_">
			<g id="XMLID_142_">
				<g id="XMLID_150_">
					<linearGradient id="XMLID_25_" gradientUnits="userSpaceOnUse" x1="979.601" y1="557.8499" x2="1169.601" y2="799.8499">
						<stop  offset="0" style="stop-color:#FFFFBD"/>
						<stop  offset="0.1411" style="stop-color:#FFA28C"/>
						<stop  offset="0.2772" style="stop-color:#E87988"/>
						<stop  offset="0.6436" style="stop-color:#154666"/>
						<stop  offset="0.9247" style="stop-color:#00364F"/>
					</linearGradient>
					<path id="XMLID_154_" fill="url(#XMLID_25_)" d="M1141.1,688.7c-52.6,4.1-109.1,7.1-109.1,7.1s-3,6,0,11.5
						c27.2,0,43,0.8,51.7,1.5c4.7,0.4,9.2,2.3,12.9,5.2c3.7,2.9,10.9,6.5,24.4,7.3c24,1.5,43.2,2,43.2,2S1158.6,690.7,1141.1,688.7z
						"/>
					
						<linearGradient id="XMLID_26_" gradientUnits="userSpaceOnUse" x1="3929.7705" y1="639.1058" x2="3886.7705" y2="781.1058" gradientTransform="matrix(-1 0 0 1 4880.1011 0)">
						<stop  offset="0" style="stop-color:#FFFFBD"/>
						<stop  offset="0.1411" style="stop-color:#FFA28C"/>
						<stop  offset="0.2772" style="stop-color:#E87988"/>
						<stop  offset="0.6436" style="stop-color:#154666"/>
						<stop  offset="0.9247" style="stop-color:#00364F"/>
					</linearGradient>
					<path id="XMLID_152_" fill="url(#XMLID_26_)" d="M1038,712.3c3.5-1,5-13.7,0-16.8s-29,1.3-38.5,3.3s-11.5,7.5-23,20
						s-42.5,53.5-48.5,62s-4,19,6.5,20s21-26,34.5-48s26-40.5,39.5-41.5S1038,712.3,1038,712.3z"/>
				</g>
				<linearGradient id="XMLID_28_" gradientUnits="userSpaceOnUse" x1="588.421" y1="328.1562" x2="823.9092" y2="1016.6218">
					<stop  offset="0" style="stop-color:#FFFFBD"/>
					<stop  offset="0.1411" style="stop-color:#FFA28C"/>
					<stop  offset="0.2772" style="stop-color:#E87988"/>
					<stop  offset="0.6436" style="stop-color:#154666"/>
					<stop  offset="0.9247" style="stop-color:#00364F"/>
				</linearGradient>
				<path id="XMLID_100_" fill="url(#XMLID_28_)" d="M1225.9,688.2c-0.8-3.3-3.6-5.7-7-6c-9.8-1-36.7-6.5-105.5-31.9
					c-96-35.5-189.5-21.5-241-2.5s-62,36.5-83,38s-39-6.5-73.5-6.5s-52.5,8-73.5,6.5s-31.5-19-83-38s-145-33-241,2.5
					c-68.7,25.4-95.7,30.8-105.5,31.9c-3.4,0.4-6.1,2.8-7,6c-2.3,8.8-2,18,0.5,27.3c0.8,2.8,3,5,5.8,5.7c7.8,1.9,23.7,7.1,26.7,19.1
					c4,16,14.5,110.5,71.5,170.5S445,980.3,515,964.3s107.5-74.5,126.5-112.5s22-57.5,24.5-76s-6.5-26-4.5-41s9.5-19,54.5-19
					s52.5,4,54.5,19s-7,22.5-4.5,41s5.5,38,24.5,76S847,948.3,917,964.3s147.5,6.5,204.5-53.5s67.5-154.5,71.5-170.5
					c3-12,18.9-17.2,26.7-19.1c2.8-0.7,5.1-2.9,5.8-5.7C1227.9,706.1,1228.2,697,1225.9,688.2z M594,906.8
					c-32,44.5-108.5,67-169,52.5s-116.6-48.6-143.1-122.6s-23.4-102.8-14.4-131.8c22.5-46,88-62.1,158.5-66.6s151.5,9.5,193.5,63.5
					C659.9,753.7,626,862.3,594,906.8z M1150.1,836.7c-26.5,74-82.6,108.1-143.1,122.6s-137-8-169-52.5s-65.9-153.1-25.5-205
					c42-54,123-68,193.5-63.5s136,20.6,158.5,66.6C1173.5,733.9,1176.6,762.7,1150.1,836.7z"/>
				<path id="XMLID_144_" fill="#00364F" d="M838,906.8c32,44.5,108.5,67,169,52.5s116.6-48.6,143.1-122.6s23.4-102.8,14.4-131.8
					c-22.5-46-88-62.1-158.5-66.6s-151.5,9.5-193.5,63.5C772.1,753.7,806,862.3,838,906.8z M804.5,729.3c15.5-52,85.5-84,178-85
					s153.5,21,176.5,70.5c14.5,38.5,0.6,144.3-68.5,199.5c-77,61.5-162.9,50-215.5,15C817,890.7,789,781.3,804.5,729.3z"/>
			</g>
			<g id="XMLID_46_">
				<g id="XMLID_485_">
					<linearGradient id="XMLID_29_" gradientUnits="userSpaceOnUse" x1="404.5134" y1="605.0999" x2="284.5134" y2="783.0999">
						<stop  offset="0" style="stop-color:#FFFFBD"/>
						<stop  offset="0.1411" style="stop-color:#FFA28C"/>
						<stop  offset="0.2772" style="stop-color:#E87988"/>
						<stop  offset="0.6436" style="stop-color:#154666"/>
						<stop  offset="0.9247" style="stop-color:#00364F"/>
					</linearGradient>
					<path id="XMLID_45_" fill="url(#XMLID_29_)" d="M290.9,688.7c52.6,4.1,109.1,7.1,109.1,7.1s3,6,0,11.5c-27.2,0-43,0.8-51.7,1.5
						c-4.7,0.4-9.2,2.3-12.9,5.2c-3.7,2.9-10.9,6.5-24.4,7.3c-24,1.5-43.2,2-43.2,2S273.4,690.7,290.9,688.7z"/>
					<linearGradient id="XMLID_30_" gradientUnits="userSpaceOnUse" x1="481.6695" y1="639.1058" x2="438.6695" y2="781.1058">
						<stop  offset="0" style="stop-color:#FFFFBD"/>
						<stop  offset="0.1411" style="stop-color:#FFA28C"/>
						<stop  offset="0.2772" style="stop-color:#E87988"/>
						<stop  offset="0.6436" style="stop-color:#154666"/>
						<stop  offset="0.9247" style="stop-color:#00364F"/>
					</linearGradient>
					<path id="XMLID_47_" fill="url(#XMLID_30_)" d="M394,712.3c-3.5-1-5-13.7,0-16.8s29,1.3,38.5,3.3s11.5,7.5,23,20
						s42.5,53.5,48.5,62s4,19-6.5,20s-21-26-34.5-48s-26-40.5-39.5-41.5S394,712.3,394,712.3z"/>
				</g>
				<path id="XMLID_527_" fill="#00364F" d="M619.5,701.8c-42-54-123-68-193.5-63.5s-136,20.6-158.5,66.6
					c-9,29-12.1,57.8,14.4,131.8S364.5,944.8,425,959.3s137-8,169-52.5S659.9,753.7,619.5,701.8z M557,929.3
					c-52.6,35-138.5,46.5-215.5-15c-69.1-55.2-83-161-68.5-199.5c23-49.5,84-71.5,176.5-70.5s162.5,33,178,85S615,890.7,557,929.3z"
					/>
			</g>
			<g id="XMLID_74_">
				<radialGradient id="XMLID_32_" cx="458" cy="929.7763" r="353" gradientUnits="userSpaceOnUse">
					<stop  offset="0" style="stop-color:#FFFFE3"/>
					<stop  offset="0.1366" style="stop-color:#FFEED4;stop-opacity:0.8634"/>
					<stop  offset="0.5186" style="stop-color:#FFC5AD;stop-opacity:0.4814"/>
					<stop  offset="0.8195" style="stop-color:#FFAB95;stop-opacity:0.1805"/>
					<stop  offset="1" style="stop-color:#FFA28C;stop-opacity:0"/>
				</radialGradient>
				<path id="XMLID_140_" opacity="0.61" fill="url(#XMLID_32_)" d="M620,833.8c-22,19-81-32.7-170.2-32.7
					c-89.2,0-150.8,41.7-171.3,16.1c-12.9-41.4-13.3-81.7-5.5-102.5c23-49.5,84-71.5,176.5-70.5s162.5,33,178,85
					C635.2,755.2,632.1,795.3,620,833.8z"/>
				<radialGradient id="XMLID_33_" cx="474" cy="1244.7762" r="412.6415" gradientUnits="userSpaceOnUse">
					<stop  offset="0" style="stop-color:#FFFFE3"/>
					<stop  offset="1" style="stop-color:#FFA28C;stop-opacity:0"/>
				</radialGradient>
				<path id="XMLID_88_" opacity="0.53" fill="url(#XMLID_33_)" d="M620,833.8c-12.3,38.9-33.8,76.2-63,95.5
					c-52.6,35-138.5,46.5-215.5-15c-31.8-25.5-52-61.6-63-97c20.5,25.5,82-16.1,171.3-16.1C539,801.1,597.9,852.8,620,833.8z"/>
			</g>
			<g id="XMLID_81_">
				
					<radialGradient id="XMLID_36_" cx="4671.7354" cy="929.7763" r="353" gradientTransform="matrix(-1 0 0 1 5645.5454 0)" gradientUnits="userSpaceOnUse">
					<stop  offset="0" style="stop-color:#FFFFE3"/>
					<stop  offset="0.1366" style="stop-color:#FFEED4;stop-opacity:0.8634"/>
					<stop  offset="0.5186" style="stop-color:#FFC5AD;stop-opacity:0.4814"/>
					<stop  offset="0.8195" style="stop-color:#FFAB95;stop-opacity:0.1805"/>
					<stop  offset="1" style="stop-color:#FFA28C;stop-opacity:0"/>
				</radialGradient>
				<path id="XMLID_83_" opacity="0.61" fill="url(#XMLID_36_)" d="M811.8,833.8c22,19,81-32.7,170.2-32.7
					c89.2,0,150.8,41.7,171.3,16.1c12.9-41.4,13.3-81.7,5.5-102.5c-23-49.5-84-71.5-176.5-70.5s-162.5,33-178,85
					C796.6,755.2,799.7,795.3,811.8,833.8z"/>
				
					<radialGradient id="XMLID_37_" cx="4687.7354" cy="1244.7762" r="412.6415" gradientTransform="matrix(-1 0 0 1 5645.5454 0)" gradientUnits="userSpaceOnUse">
					<stop  offset="0" style="stop-color:#FFFFE3"/>
					<stop  offset="1" style="stop-color:#FFA28C;stop-opacity:0"/>
				</radialGradient>
				<path id="XMLID_82_" opacity="0.53" fill="url(#XMLID_37_)" d="M811.8,833.8c12.3,38.9,33.8,76.2,63,95.5
					c52.6,35,138.5,46.5,215.5-15c31.8-25.5,52-61.6,63-97c-20.5,25.5-82-16.1-171.3-16.1C892.8,801.1,833.9,852.8,811.8,833.8z"/>
			</g>
		</g>
		<linearGradient id="XMLID_38_" gradientUnits="userSpaceOnUse" x1="387.5881" y1="875.3091" x2="387.5881" y2="767.7036">
			<stop  offset="0" style="stop-color:#154666;stop-opacity:0"/>
			<stop  offset="0.9247" style="stop-color:#00364F"/>
		</linearGradient>
		<path id="XMLID_91_" fill="url(#XMLID_38_)" d="M497.5,804.6c-10.5-0.8-21,21.7-34.5,40c-13.5,18.4-26,33.8-39.5,34.6
			c-13.5,0.8-29.5-0.8-29.5-0.8c-1.3,0.3-2.4,2-2.9,4.1c-21.9-0.1-35.2-0.7-42.8-1.2c-4.7-0.3-9.2-1.9-12.9-4.4
			c-3.7-2.4-10.9-5.4-24.4-6.1c-24-1.3-43.2-1.7-43.2-1.7s5.6,27.2,23.1,28.8c42.3-2.7,87.2-4.9,103.1-5.6l0,0
			c5,2.6,29-1.1,38.5-2.8s11.5-6.3,23-16.7c11.5-10.4,42.5-44.6,48.5-51.7S508,805.5,497.5,804.6z"/>
		
			<linearGradient id="XMLID_39_" gradientUnits="userSpaceOnUse" x1="4362.1519" y1="875.3091" x2="4362.1519" y2="767.7036" gradientTransform="matrix(-1 0 0 1 5407.1494 0)">
			<stop  offset="0" style="stop-color:#154666;stop-opacity:0"/>
			<stop  offset="0.9247" style="stop-color:#00364F"/>
		</linearGradient>
		<path id="XMLID_40_" fill="url(#XMLID_39_)" d="M935.1,804.6c10.5-0.8,21,21.7,34.5,40c13.5,18.4,26,33.8,39.5,34.6
			c13.5,0.8,29.5-0.8,29.5-0.8c1.3,0.3,2.4,2,2.9,4.1c21.9-0.1,35.2-0.7,42.8-1.2c4.7-0.3,9.2-1.9,12.9-4.4
			c3.7-2.4,10.9-5.4,24.4-6.1c24-1.3,43.2-1.7,43.2-1.7s-5.6,27.2-23.1,28.8c-42.3-2.7-87.2-4.9-103.1-5.6l0,0
			c-5,2.6-29-1.1-38.5-2.8s-11.5-6.3-23-16.7c-11.5-10.4-42.5-44.6-48.5-51.7S924.6,805.5,935.1,804.6z"/>
		<linearGradient id="XMLID_41_" gradientUnits="userSpaceOnUse" x1="715.9999" y1="1087.6593" x2="715.9999" y2="917.7734">
			<stop  offset="0" style="stop-color:#154666;stop-opacity:0"/>
			<stop  offset="0.9247" style="stop-color:#00364F"/>
		</linearGradient>
		<path id="XMLID_173_" fill="url(#XMLID_41_)" d="M1145.2,1084.1c0.1-1.1-1.2-1.9-3.4-2.2c-6.1-0.7-18.2-2.8-17.7-7.5
			c0.7-6.4,17-47-19.7-75.6c-39.9-31.1-115.5-36.2-188.4-27.6c-71.1,8.5-111.7,37.8-131.5,55.7c-18.7,17-22,25.3-24.8,33.1
			c-2.7,7.6,4.9,10.6,2.7,16.5c-2.1,5.8-8.5,7.4-46.5,7.4c-37.9,0-44.3-1.5-46.5-7.4c-2.2-6,5.4-9,2.7-16.5
			c-2.7-7.8-6-16.1-24.8-33.1c-19.7-17.8-60.3-47.2-131.5-55.7c-72.8-8.7-148.4-3.5-188.4,27.6c-36.7,28.6-20.4,69.2-19.7,75.6
			c0.5,4.7-11.6,6.7-17.7,7.5c-2.2,0.3-3.5,1.1-3.4,2.2c0.4,3.5,2.5,7,6.7,10.3c1.5,1.2,4.4,2.1,7.3,2.2c8.3,0.4,31.8,2.4,93.3,11.5
			c82.8,12.3,155.6,7.5,195.4,0.9c40.7-6.8,48.5-13.2,65.8-13.8c17.3-0.6,32.4,2.4,60.8,2.4s43.5-3,60.8-2.4
			c17.3,0.6,25.1,7,65.8,13.8c39.8,6.6,112.6,11.4,195.4-0.9c61.4-9.2,84.9-11.1,93.3-11.5c2.9-0.1,5.8-1,7.3-2.2
			C1142.7,1091.1,1144.8,1087.7,1145.2,1084.1z M640.8,1078.8c-10.4,19.7-65.3,31.2-139.9,31.5c-74.5,0.4-128.1-7.5-158-25.9
			c-21.6-15.1-37-60.7,13.5-87.2c61-32,149-25.8,205.3-7.6C620.6,1008.7,651.9,1057.8,640.8,1078.8z M1089,1084.4
			c-29.8,18.4-83.5,26.3-158,25.9c-74.6-0.4-129.5-11.9-139.9-31.5c-11.1-21,20.2-70.1,79.1-89.2c56.3-18.3,144.2-24.5,205.3,7.6
			C1126,1023.6,1110.6,1069.3,1089,1084.4z"/>
	</g>
	<g id="XMLID_240_">
		<linearGradient id="XMLID_42_" gradientUnits="userSpaceOnUse" x1="340.876" y1="896.2485" x2="620.9238" y2="896.2485">
			<stop  offset="4.926108e-003" style="stop-color:#FFA88F;stop-opacity:0"/>
			<stop  offset="0.4581" style="stop-color:#FFFFE3"/>
			<stop  offset="1" style="stop-color:#FFA28C;stop-opacity:0"/>
		</linearGradient>
		<path id="XMLID_8_" fill="url(#XMLID_42_)" d="M460.1,959c-37.8,0-79.3-12.1-119.2-44l1.2-1.6c79.4,63.4,165.1,47.7,214.3,14.9
			c26.2-17.4,49-52,62.6-95l1.9,0.6c-13.7,43.4-36.8,78.4-63.4,96C532.5,946.7,498.2,959,460.1,959z"/>
	</g>
	<g id="XMLID_58_">
		<linearGradient id="XMLID_43_" gradientUnits="userSpaceOnUse" x1="874.2559" y1="887.9854" x2="1154.2549" y2="887.9854">
			<stop  offset="4.926108e-003" style="stop-color:#FFA88F;stop-opacity:0"/>
			<stop  offset="0.4581" style="stop-color:#FFFFE3"/>
			<stop  offset="1" style="stop-color:#FFA28C;stop-opacity:0"/>
		</linearGradient>
		<path id="XMLID_7_" fill="url(#XMLID_43_)" d="M971.7,959c-38.1,0-72.4-12.3-97.4-28.9l1.1-1.7c49.2,32.7,134.9,48.5,214.3-14.9
			c35.9-28.7,53.9-68.3,62.7-96.6l1.9,0.6c-8.9,28.5-27,68.5-63.3,97.5C1051,947,1009.5,959,971.7,959z"/>
	</g>
	<g id="XMLID_59_">
		<linearGradient id="XMLID_44_" gradientUnits="userSpaceOnUse" x1="212.9351" y1="655.2863" x2="559.8462" y2="655.2863">
			<stop  offset="4.926108e-003" style="stop-color:#FFA88F;stop-opacity:0"/>
			<stop  offset="0.4581" style="stop-color:#FFFFE3"/>
			<stop  offset="1" style="stop-color:#FFA28C;stop-opacity:0"/>
		</linearGradient>
		<path id="XMLID_6_" fill="url(#XMLID_44_)" d="M213.1,683.1l-0.2-2c10-1.1,37-6.6,105.2-31.8c91.5-33.8,184.8-23.5,241.7-2.5
			l-0.7,1.9c-56.5-20.9-149.3-31.1-240.3,2.5C250.5,676.5,223.3,682.1,213.1,683.1z"/>
	</g>
	<g id="XMLID_24_">
		<linearGradient id="XMLID_48_" gradientUnits="userSpaceOnUse" x1="789.4287" y1="657.1024" x2="1113.8467" y2="657.1024">
			<stop  offset="4.926108e-003" style="stop-color:#FFA88F;stop-opacity:0"/>
			<stop  offset="0.4581" style="stop-color:#FFFFE3"/>
			<stop  offset="1" style="stop-color:#FFA28C;stop-opacity:0"/>
		</linearGradient>
		<path id="XMLID_5_" fill="url(#XMLID_48_)" d="M789.6,686.8l-0.1-2c10.1-0.7,17.7-5.2,29.2-12c11.6-6.9,27.4-16.3,53.6-25.9
			c56.9-21,150.2-31.3,241.7,2.5l-0.7,1.9c-91-33.6-183.8-23.4-240.3-2.5c-26,9.6-41.8,18.9-53.2,25.8
			C808.3,681.2,800.2,686,789.6,686.8z"/>
	</g>
	<g id="XMLID_31_">
		<linearGradient id="XMLID_49_" gradientUnits="userSpaceOnUse" x1="752.446" y1="744.7594" x2="808.3292" y2="841.5519">
			<stop  offset="4.926108e-003" style="stop-color:#FFA88F;stop-opacity:0"/>
			<stop  offset="0.4581" style="stop-color:#FFFFE3"/>
			<stop  offset="1" style="stop-color:#FFA28C;stop-opacity:0"/>
		</linearGradient>
		<path id="XMLID_3_" fill="url(#XMLID_49_)" d="M789.6,852.2c-19.6-39.1-22.2-58.9-24.6-76.3c-1.3-9.9,0.5-16.7,2.4-23.2
			c1.6-5.6,3.1-10.9,2.1-17.8l2-0.3c1,7.3-0.6,12.8-2.2,18.6c-1.8,6.3-3.6,12.8-2.3,22.4c2.3,17.3,5,36.8,24.4,75.7L789.6,852.2z"/>
	</g>
	<g id="XMLID_34_">
		<linearGradient id="XMLID_50_" gradientUnits="userSpaceOnUse" x1="227.7516" y1="728.5142" x2="284.6361" y2="629.9872">
			<stop  offset="4.926108e-003" style="stop-color:#FFA88F;stop-opacity:0"/>
			<stop  offset="0.4581" style="stop-color:#FFFFE3"/>
			<stop  offset="1" style="stop-color:#FFA28C;stop-opacity:0"/>
		</linearGradient>
		<path id="XMLID_2_" fill="url(#XMLID_50_)" d="M205.6,715.7c-2.6-9.7-2.7-19-0.5-27.8c1-3.7,4-6.4,7.8-6.8
			c10-1.1,37-6.6,105.2-31.8l0.7,1.9c-68.4,25.3-95.6,30.9-105.7,31.9c-3,0.3-5.4,2.4-6.1,5.3c-2.2,8.4-2,17.4,0.5,26.7L205.6,715.7
			z"/>
	</g>
</g>
</svg>
