<?xml version="1.0" encoding="utf-8"?>
<!-- Generator: Adobe Illustrator 19.0.0, SVG Export Plug-In . SVG Version: 6.00 Build 0)  -->
<svg version="1.1" id="Layer_1" xmlns="http://www.w3.org/2000/svg" xmlns:xlink="http://www.w3.org/1999/xlink" x="0px" y="0px"
	 width="1400px" height="1400px" viewBox="0 0 1400 1400" enable-background="new 0 0 1400 1400" xml:space="preserve">
<g id="XMLID_1_">
	<radialGradient id="XMLID_40_" cx="-177" cy="-203" r="2649.4753" gradientUnits="userSpaceOnUse">
		<stop  offset="0" style="stop-color:#FFFFBD"/>
		<stop  offset="0.1411" style="stop-color:#FFA28C"/>
		<stop  offset="0.2772" style="stop-color:#E87988"/>
		<stop  offset="0.6436" style="stop-color:#154666"/>
		<stop  offset="0.9247" style="stop-color:#00364F"/>
	</radialGradient>
	<rect id="XMLID_402_" fill="url(#XMLID_40_)" width="1400" height="1400"/>
	<polygon id="XMLID_400_" fill="#00364F" points="1400,371.9 1400,464.8 1205,357 	"/>
	<g id="XMLID_377_">
		<defs>
			<rect id="XMLID_376_" width="1400" height="1400"/>
		</defs>
		<clipPath id="XMLID_41_">
			<use xlink:href="#XMLID_376_"  overflow="visible"/>
		</clipPath>
		<linearGradient id="XMLID_42_" gradientUnits="userSpaceOnUse" x1="387.0052" y1="-477.8856" x2="1194.0859" y2="1058.2681">
			<stop  offset="0" style="stop-color:#FFFFBD"/>
			<stop  offset="0.1411" style="stop-color:#FFA28C"/>
			<stop  offset="0.2772" style="stop-color:#E87988"/>
			<stop  offset="0.6436" style="stop-color:#154666"/>
			<stop  offset="0.9247" style="stop-color:#00364F"/>
		</linearGradient>
		<rect id="XMLID_38_" clip-path="url(#XMLID_41_)" fill="url(#XMLID_42_)" width="1400" height="235.7"/>
		<g id="XMLID_17_" clip-path="url(#XMLID_41_)">
			<g id="XMLID_241_">
				<g id="XMLID_27_">
					<path id="XMLID_28_" fill="#00364F" d="M359.1,998.3c23.8,4.1,36.8,27.6,54.1,66.5c17.3,38.9,75.7,202.5,89.8,274
						c14.1,71.6-14,99.2-14,99.2l-21.7-108.4c0,0,13-16.4,4.3-47s-70.3-206.5-80-218.8s-20.6,1-32.5-19.4
						C347.2,1023.8,335.5,985.1,359.1,998.3z"/>
				</g>
				<path id="XMLID_24_" fill="#00364F" d="M320.2,959.4c0,0-161.1-367.7-167.7-381.1c-9.7-19.9-32.5-29.1-55.2-19.9
					c-27,10.9-29.2,35.8-19.5,67.1s136.3,387.1,136.3,387.1L320.2,959.4z"/>
				<path id="XMLID_21_" fill="#00364F" d="M202.3,1008.5c0-42.9,47.6-60.3,68.1-64.4s54.1,1,63.8,23.5
					c9.7,22.5,99.5,212.7,129.8,326.2c30.3,113.5,40,174.9-7.6,187.1s-74.6-28.6-126.6-138C278,1233.4,202.3,1008.5,202.3,1008.5z"
					/>
			</g>
			<linearGradient id="XMLID_43_" gradientUnits="userSpaceOnUse" x1="108.3993" y1="341.5151" x2="1648.8223" y2="1250.4696">
				<stop  offset="0" style="stop-color:#FFFFBD"/>
				<stop  offset="0.1411" style="stop-color:#FFA28C"/>
				<stop  offset="0.2772" style="stop-color:#E87988"/>
				<stop  offset="0.6436" style="stop-color:#154666"/>
				<stop  offset="0.9247" style="stop-color:#00364F"/>
			</linearGradient>
			<path id="XMLID_3_" fill="url(#XMLID_43_)" d="M146,298.2l562,1016l919-448l-800.9-720C673.9,195.3,410.1,246.7,146,298.2z"/>
			
				<linearGradient id="XMLID_44_" gradientUnits="userSpaceOnUse" x1="543.9885" y1="381.9492" x2="1105.5985" y2="1622.3149" gradientTransform="matrix(0.7913 -0.1509 0.5054 0.7266 -57.5457 124.7753)">
				<stop  offset="0" style="stop-color:#FFFFBD"/>
				<stop  offset="0.1411" style="stop-color:#FFA28C"/>
				<stop  offset="0.2772" style="stop-color:#E87988"/>
				<stop  offset="0.6436" style="stop-color:#154666"/>
				<stop  offset="0.9247" style="stop-color:#00364F"/>
			</linearGradient>
			<path id="XMLID_453_" fill="url(#XMLID_44_)" d="M936.3,423.6L578.2,546.3c-13.8,4.7-33.2-2.5-43.1-15.9L424,380.1
				c-8.4-11.4-4.6-23.4,8.4-27l340.4-94.5c10.6-3,27,2.4,36.6,12l126.4,125.9C947.1,407.6,947.4,419.8,936.3,423.6z"/>
			<linearGradient id="XMLID_45_" gradientUnits="userSpaceOnUse" x1="161.8491" y1="242.3527" x2="653.8245" y2="1335.798">
				<stop  offset="0" style="stop-color:#FFA28C"/>
				<stop  offset="0.2772" style="stop-color:#E87988"/>
				<stop  offset="0.6436" style="stop-color:#154666"/>
				<stop  offset="0.9247" style="stop-color:#00364F"/>
			</linearGradient>
			<path id="XMLID_8_" fill="url(#XMLID_45_)" d="M146,298.2c-3,28,0,51,0,51l546,1007c4-22,16-42,16-42L146,298.2z"/>
			<path id="XMLID_10_" fill="#00364F" d="M692,1356.2c0,0,447-217,481-231s444.7-215.5,444.7-215.5l9.3-43.5l-919,448
				C708,1314.2,688,1338.2,692,1356.2z"/>
			<g id="XMLID_96_">
				<path id="XMLID_11_" fill="#00364F" d="M304.2,959.1c22,4,34,27,50,65s70,198,83,268s-13,97-13,97l-20-106c0,0,12-16,4-46
					s-65-202-74-214s-19,1-30-19S282.4,946.2,304.2,959.1z"/>
				<linearGradient id="XMLID_46_" gradientUnits="userSpaceOnUse" x1="-118.9763" y1="747.3177" x2="591.0237" y2="757.3177">
					<stop  offset="0.109" style="stop-color:#FFFFBD"/>
					<stop  offset="0.2349" style="stop-color:#FFA28C"/>
					<stop  offset="0.3317" style="stop-color:#E87988"/>
					<stop  offset="0.5027" style="stop-color:#154666"/>
					<stop  offset="0.9247" style="stop-color:#00364F"/>
				</linearGradient>
				<path id="XMLID_304_" fill="url(#XMLID_46_)" d="M64.1,528.2c-0.6,0.2-1.3,0.5-1.9,0.8c-25,10.7-27,35.1-18,65.6
					c9,30.6,126,378.6,126,378.6l64.8-34.4C193.4,812.7,132.8,693.3,81,570C75.3,556.1,69.7,542.1,64.1,528.2z"/>
				<linearGradient id="XMLID_47_" gradientUnits="userSpaceOnUse" x1="-286.1413" y1="325.8644" x2="411.8587" y2="955.8644">
					<stop  offset="0" style="stop-color:#FFFFBD"/>
					<stop  offset="0.1411" style="stop-color:#FFA28C"/>
					<stop  offset="0.2772" style="stop-color:#E87988"/>
					<stop  offset="0.6436" style="stop-color:#154666"/>
					<stop  offset="0.9247" style="stop-color:#00364F"/>
				</linearGradient>
				<path id="XMLID_308_" fill="url(#XMLID_47_)" d="M113.2,548.4c-8.7-18.9-28.8-27.9-49.1-20.2c5.6,13.9,11.3,27.9,16.9,41.8
					c51.8,123.3,112.4,242.7,154,368.7l33.2-17.6C268.2,921.1,119.2,561.5,113.2,548.4z"/>
				<linearGradient id="XMLID_48_" gradientUnits="userSpaceOnUse" x1="75.586" y1="883.4817" x2="583.586" y2="1577.4817">
					<stop  offset="0" style="stop-color:#FFFFBD"/>
					<stop  offset="0.1411" style="stop-color:#FFA28C"/>
					<stop  offset="0.2772" style="stop-color:#E87988"/>
					<stop  offset="0.6436" style="stop-color:#154666"/>
					<stop  offset="0.9247" style="stop-color:#00364F"/>
				</linearGradient>
				<path id="XMLID_306_" fill="url(#XMLID_48_)" d="M296,1103c-25.2-66.3-51.9-131.2-80-195.3c-20.9,6-56.8,23.5-56.8,61.5
					c0,0,70,220,118,327c38.9,86.7,62.7,129.4,93.7,136.1C380.8,1317.7,335.8,1207.7,296,1103z"/>
				<linearGradient id="XMLID_49_" gradientUnits="userSpaceOnUse" x1="-254.5302" y1="838.328" x2="565.4698" y2="1316.328">
					<stop  offset="0" style="stop-color:#FFFFBD"/>
					<stop  offset="0.1411" style="stop-color:#FFA28C"/>
					<stop  offset="0.2772" style="stop-color:#E87988"/>
					<stop  offset="0.6436" style="stop-color:#154666"/>
					<stop  offset="0.9247" style="stop-color:#00364F"/>
				</linearGradient>
				<path id="XMLID_307_" fill="url(#XMLID_49_)" d="M401.2,1248.1c-28-111-111-297-120-319s-40-27-59-23c-1.8,0.4-3.9,0.9-6.2,1.5
					c28,64.2,54.8,129.1,80,195.3c39.8,104.7,84.8,214.7,74.9,329.2c7.3,1.6,15,1.2,23.3-1.1
					C438.2,1419.1,429.2,1359.1,401.2,1248.1z"/>
			</g>
			<linearGradient id="XMLID_50_" gradientUnits="userSpaceOnUse" x1="1100.5822" y1="584.9842" x2="779.5821" y2="802.9842">
				<stop  offset="0" style="stop-color:#154666;stop-opacity:0"/>
				<stop  offset="0.9247" style="stop-color:#00364F"/>
			</linearGradient>
			<path id="XMLID_622_" fill="url(#XMLID_50_)" d="M1369.5,828.3c-10.2-10.3-47.4-35.3-68.4-59.5c-20.9-24.2-109.6-80.4-199.9-98
				c-66.8-13-97.7-2.2-119.9-13.5c-22.2-11.3-59.2-30.4-111.7-40.9c-23.6-4.7-28.1-12.6-34.2-20.7c-6.1-8.1-25.1-38.5-126.7-69.1
				c-61-18.3-154.2-16.2-182.8-18.2s-36.9-4.7-47.1,2.7c-8.2,6-15.6,9.6-14.2,12.3l0,0c-1.3,16.5-0.8,23.6-0.8,23.6l6.3,2.2
				c-4,3.8-5.7,3.6-4.9,5.8c0.8,2.2,3.6,3.3,3.6,3.3c2-2.9,4-5.4,5.7-7.6c0.3-0.3,0.6-0.7,0.8-1c0.2-0.2,0.4-0.4,0.5-0.6
				c0.3-0.4,0.7-0.8,1-1.1c0.2-0.3,0.4-0.5,0.7-0.7c0.5-0.5,1-1,1.4-1.5c0.1-0.1,0.2-0.2,0.3-0.3c0.5-0.5,1-0.9,1.4-1.3
				c4-3.3,6.1-5.7,6.5-7.7c-0.4,2-2.5,4.4-6.5,7.7c-0.4,0.4-0.9,0.8-1.4,1.3c-0.1,0.1-0.2,0.2-0.3,0.3c-0.4,0.4-0.9,0.9-1.4,1.5
				c-0.2,0.2-0.4,0.5-0.7,0.7c-0.3,0.4-0.7,0.7-1,1.1c-0.2,0.2-0.3,0.4-0.5,0.6c-0.3,0.3-0.5,0.6-0.8,1c-1.8,2.1-3.7,4.7-5.7,7.6
				c-9.1,12.9-20.1,32.6-25.2,53.2c-33.5,1-61.1,1.9-67.2,2.3c-17.9,1.2-36.6,5.2-5.3,17.8c22.4,9,43.3,7.7,69.7,3.8
				c0.4,12.6,4,24.7,12.8,35c36.2,42.5,114.5,74.1,228.8,60c54.3-6.7,98.5-29,127.7-49.9c38.8,14.9,80.1,30.8,101.9,39.2
				c-23,35.3-30.6,76.1-11.9,111.9c23.4,45,71.5,74.1,149.4,92.2c50.7,9.4,90.2,11,141.9-7.4c0,0,0.1,0,0.1,0
				c0.2-0.1,0.3-0.1,0.5-0.2c16-5.5,30.8-12.4,44.1-19.8c6.6,6.6,11.5,11.4,13.8,13.3c11.5,9.4,21.1,18.4,48.7,20.4
				c27.6,2,36-4.7,29.7-12.1c-3.1-3.6-29.3-23.2-57.5-44c6.1-4.5,11.5-8.8,16.2-12.7c0,0,0,0,0,0c13,9.1,23.7,10.6,30,9.2
				c2.1-1.5,4.2-3.7,5.8-5.7c3,0.6,5.8,0.4,8.5-1.2l23.9-16.2l0,0c5.3-1.2,9.5-4.3,12.1-6.1c0,0,0,0,0,0c0,0,0,0,0,0
				C1372.5,839.7,1375.9,834.7,1369.5,828.3z M465.2,599.5c5.7-12.7,13.1-24.2,22.3-34.2c0,0,0,0,0,0c21,8.3,66.6,26.3,106.9,42
				c-0.3,0-72.2,1.9-133.6,3.8C462,607.3,463.5,603.4,465.2,599.5z M787,671.7c-6.1,5.3-12.7,10.4-19.5,14.9
				c-6.9,4.1-14.4,8.1-22.2,11.9l0,0c0,0,0,0,0,0c-48.5,23.4-112.9,38.4-179.6,24.3c-22.2-4.7-40.6-10.5-55.6-17.1
				c-23.9-10.5-39.3-22.9-48.3-36.2c0.7,0.8,1.4,1.7,2.2,2.5c8.7,9.6,20.9,19.4,37.7,29c-32.4-19-46.3-41.9-45.1-68
				c5.9-1,12.2-2,18.7-3c36.9-5.6,115-9.4,153.5-9.4c17.8,6.9,31.7,12.1,37.6,14.2c24.6,8.5,35.8,4.8,55,11.8
				C727.9,649.1,754.8,659.3,787,671.7C787,671.7,787,671.7,787,671.7C787,671.7,787,671.7,787,671.7z M822.1,624.4
				c-1.5,9.6-10.8,23.4-24,36.9c0,0,0,0,0,0c-64.2-23.4-134.3-49.4-166.6-62.7c-52.5-21.5-104.3-42.3-124.5-50.3
				c19.8-13.8,44.7-22.3,74.7-23.4c58.1-2.1,118,5.8,175.7,33C815.1,585,825.2,604.1,822.1,624.4z M823.3,670.5
				c11.2-9.3,19-17.7,22.9-23.6c0,0,0,0,0,0c7.8-9.1,50.1,3.3,72.2,12.8c22.1,9.5,26.7,13.8,28.5,19.4c1.1-1.3,1.8-2.5,2.1-3.8
				c-0.3,1.2-1,2.5-2.1,3.8c-1.1,1.3-2.7,2.7-4.7,4.1c-7.1,5-14.1,13-20.2,22.9c0,0,0,0,0,0.1c0,0,0,0,0,0c0,0,0,0,0-0.1
				c0,0,0,0,0,0.1C905.7,700.3,867.5,686.6,823.3,670.5z M914.2,720.6C914.2,720.6,914.2,720.6,914.2,720.6
				c-3.4,7.2-6.3,15-8.6,23.1C907.9,735.6,910.8,727.8,914.2,720.6z M1221.5,890.4c0,0-0.1,0-0.1,0.1c-3.6,1.9-7.3,3.8-11,5.6
				c-0.1,0-0.2,0.1-0.2,0.1c-23.4,11.3-48,19.5-69.5,21.8c-65.8,7-171.4-10.2-213.6-82.5c-23.8-40.7-12.8-79.7,6-107.6
				c0.1,0,85.3,26,131.6,39.8c20.3,8.3,35.2,14.4,35.7,14.7c1.4,0.7,55.8,33.9,55.8,33.9s0.4,0.1,1.2,0.4
				c18.9,18.3,48.7,49.3,69.7,70.7C1225.2,888.4,1223.3,889.4,1221.5,890.4z M1258.2,865c-15.9-11.6-31.4-22.9-42.8-31.3
				c17.8,5.3,33.2,10,35.5,10.9c4.9,2,9.8,9.6,15,13C1263.4,860.2,1260.8,862.6,1258.2,865z M1291.3,818.7
				c-1.2,4.2-3.2,8.7-5.7,13.3l-127.3-42.2c-19.3-12.9-46-26.7-86-38.3c-64.5-18.7-111.7-33.1-128.1-38.2
				c10.5-12,21.8-20.7,30.1-24.8c49.6-18.8,109.5-14.8,188.6,14.1c79.1,28.9,118.3,75.6,128.1,97.9
				C1293.3,805.6,1293.2,811.8,1291.3,818.7z"/>
			<g id="XMLID_595_">
				<g id="XMLID_517_">
					<path id="XMLID_6_" fill="#00364F" d="M905.4,669.7c0,0,138.6,48.9,161.6,56.4s36.5,17.5,57,36s117,130.5,130.5,143
						s25,24.6,51.5,25.5c26.5,1,32.5-9,24.5-19s-124.7-107-147-126c-24-20.4-58-64.5-140.5-92s-137.6-47.5-137.6-47.5V669.7z"/>
					<linearGradient id="XMLID_51_" gradientUnits="userSpaceOnUse" x1="461.1173" y1="544.7982" x2="477.784" y2="594.1315">
						<stop  offset="0" style="stop-color:#FFFFBD"/>
						<stop  offset="0.1411" style="stop-color:#FFA28C"/>
						<stop  offset="0.2772" style="stop-color:#E87988"/>
						<stop  offset="0.6436" style="stop-color:#154666"/>
						<stop  offset="0.9247" style="stop-color:#00364F"/>
					</linearGradient>
					<path id="XMLID_7_" fill="url(#XMLID_51_)" d="M553.1,551.7c0,0-186.6,38.5-203.1,43s-33,13,0,26s57.5-2,97.5-18.5
						s137.5-38.5,159-39s4.5-10,3-11.5S553.1,551.7,553.1,551.7z"/>
					<g id="XMLID_795_">
						<linearGradient id="XMLID_52_" gradientUnits="userSpaceOnUse" x1="329.9473" y1="586.1426" x2="553.2983" y2="586.1426">
							<stop  offset="4.926108e-003" style="stop-color:#FFA88F;stop-opacity:0"/>
							<stop  offset="0.4581" style="stop-color:#FFFFE3"/>
							<stop  offset="1" style="stop-color:#FFA28C;stop-opacity:0"/>
						</linearGradient>
						<path id="XMLID_39_" fill="url(#XMLID_52_)" d="M349.6,621.6c-13.5-5.3-20-10.3-19.7-15.3c0.3-4.8,6.9-9,19.8-12.6
							c16.3-4.5,201.3-42.6,203.2-43l0.4,2c-1.9,0.4-186.8,38.5-203,43c-11.6,3.2-18.1,7-18.3,10.7c-0.1,2.7,2.9,7.3,18.4,13.4
							L349.6,621.6z"/>
					</g>
					<linearGradient id="XMLID_53_" gradientUnits="userSpaceOnUse" x1="879.5823" y1="769.506" x2="794.2489" y2="548.8393">
						<stop  offset="0" style="stop-color:#FFFFBD"/>
						<stop  offset="0.1411" style="stop-color:#FFA28C"/>
						<stop  offset="0.2772" style="stop-color:#E87988"/>
						<stop  offset="0.6436" style="stop-color:#154666"/>
						<stop  offset="0.9247" style="stop-color:#00364F"/>
					</linearGradient>
					<path id="XMLID_29_" fill="url(#XMLID_53_)" d="M899.9,667.7c0,0-82.2-30.5-145.6-54c-0.7-0.2-1.3-0.5-2-0.7
						c2.7-5.4,5.2-10.9,7.5-16.5c1.1,0.4,2.3,0.8,3.4,1.2c70.7,24.5,133.5,45.8,134.3,46C899,644.2,899.9,667.7,899.9,667.7z"/>
					<path id="XMLID_9_" fill="#00364F" d="M1275.7,765.3L919.5,657.2c0,0,157,63,158.5,63.8s62,39.2,62,39.2s91,23,97,25.5
						s14.2,15.7,20.6,17.6"/>
					<linearGradient id="XMLID_54_" gradientUnits="userSpaceOnUse" x1="737.2039" y1="234.7415" x2="933.6941" y2="842.2111">
						<stop  offset="0" style="stop-color:#FFFFBD"/>
						<stop  offset="0.1411" style="stop-color:#FFA28C"/>
						<stop  offset="0.2772" style="stop-color:#E87988"/>
						<stop  offset="0.6436" style="stop-color:#154666"/>
						<stop  offset="0.9247" style="stop-color:#00364F"/>
					</linearGradient>
					<path id="XMLID_127_" fill="url(#XMLID_54_)" d="M1344,744.2c-12.5-13-54.5-42.5-81-73.5s-125.7-96.7-215.5-107.5
						c-66.5-8-92.5,12-116.5-0.5s-64.2-33.8-116.5-40.5c-23.5-3-30-13.5-38-24s-34.4-50.5-138.5-78c-62.5-16.5-149.5,0.9-177,2.5
						s-36-1-43.5,11c-6.1,9.7-12,16-9.9,19.5c0.5,0.8,1.4,1.5,2.9,2c20.5,7,27,8,18,25c-0.3,0.6-0.6,1.3-1,2
						c-0.1,0.2-0.1,0.3-0.2,0.5c-0.3,0.7-0.6,1.4-0.9,2.3c-0.1,0.4-0.3,0.8-0.4,1.1c-0.2,0.6-0.4,1.2-0.6,1.8
						c-0.1,0.3-0.2,0.6-0.3,1c-0.2,0.5-0.3,1-0.5,1.5c-1.1,3.3-2.2,7.2-3.3,11.5c-9.9,39.4-19.1,117.7,17.2,160.8
						c46,54.5,128.5,87,232,49.5c80-29,123.4-112.2,130.5-143.5c6.5-28.5,15.8-23,40.5-16c16,4.5,38,14,50,21.5
						c10,6.3,16.8,13.8,13.3,24.4c-0.7,2.1-1.8,4.3-3.3,6.6c-5.3,8.1-9.6,20.5-12.6,35.5c-10.4,51.8-5.6,134.8,27.1,182
						c48.5,70,116,113,217,102c26-2.8,48.9-13.7,68.4-28.4c0.1-0.1,0.3-0.2,0.4-0.3c34.9-26.4,59.5-65,73.9-92.1c2.7-5.1,5-9.8,7-14
						c1.9-4,3.5-7.6,4.7-10.4v0c1.6-3.7,2.6-6.2,3-7.3c1.9-4.8,5.8-11,12.5-14.3c1.9-1,4.1-1.7,6.5-2c3.4-0.5,7.2-0.3,11.6,0.8
						c4.5,1.2,9.6,3.4,15.4,7c3,1.9,6.5,1.4,9.2-0.5c0,0,0,0,0,0C1350.1,759.9,1351.8,752.3,1344,744.2z M779,550.2
						c-1.5,13.5-6.9,30.1-15.8,47.5c-2.7,5.3-5.7,10.6-9,16c-4.8,7.8-10.2,15.6-16.2,23.3c-5.4,6.9-11.2,13.7-17.5,20.2l0,0
						c0,0,0,0,0,0c-39.1,40.5-95.4,71.6-162,62c-22.2-3.2-41.1-8.5-57.1-15.5c-25.4-11.1-43.3-26.3-55.6-43.6
						c-23.4-33-26.1-73.6-20.3-107.8c3.5-20.3,6.7-34.6,10.1-45.3c4-12.7,8-20.5,12.3-27.6c2.1-3.4,4.3-6.6,6.5-10.2
						c30.5-47.4,88-53.1,163.5-44C702.9,435.4,786,488.2,779,550.2z M1232,842.8C1232,842.8,1232,842.8,1232,842.8
						c-3.2,4.1-6.4,8-9.8,11.9c0,0-0.1,0.1-0.1,0.1c-2.9,3.3-5.8,6.5-8.8,9.6c-0.1,0.1-0.1,0.1-0.2,0.2
						c-18.8,19.6-39.7,35-59.2,41.6c-59.9,20.1-164,12-224-83.5c-57.5-91.4-18.9-191.1,3.2-214.8c41.3-34.2,98.8-37.8,181.3-9.3
						s132.5,88.6,148,118.6C1276.5,744.3,1261.2,803.3,1232,842.8z"/>
					<path id="XMLID_15_" fill="#00364F" d="M904.8,598.6c-3.2-7.6-8.8-12.9-32.3-23c-23.5-10.1-66.7-21.1-71.5-6.9
						c6.5-28.5,15.8-23,40.5-16c16,4.5,38,14,50,21.5C901.5,580.4,908.3,588,904.8,598.6z"/>
					<path id="XMLID_12_" fill="#00364F" d="M1232,842.8c29.1-39.5,44.5-98.5,30.5-125.6c-15.5-30-65.5-90-148-118.6
						s-140-24.9-181.3,9.3c0,0,0,0,0,0c1-1,1.9-1.9,2.8-2.7c24.5-26,71.6-52.7,172-15.5s154.9,91.1,166.5,142
						C1281,760.2,1261.2,805.2,1232,842.8z"/>
					<path id="XMLID_13_" fill="#00364F" d="M1201.4,896.3c-43.5,34-81.1,37.9-131.4,32.4c-78.3-13.6-131.7-47.2-166.3-107.2
						c-31.2-54.1-32.7-122.3-14.8-180.8c-10.4,51.8-5.6,134.8,27.1,182c48.5,70,116,113,217,102C1159,921.8,1181.9,911,1201.4,896.3
						z"/>
					<path id="XMLID_32_" fill="#00364F" d="M428.5,480.2c-0.3,0.6-0.6,1.3-1,2c-0.1,0.2-0.1,0.3-0.2,0.5c-0.3,0.7-0.6,1.5-0.9,2.3
						c-0.1,0.4-0.3,0.8-0.4,1.1c-0.2,0.6-0.4,1.1-0.6,1.8c-0.1,0.3-0.2,0.6-0.3,1c-0.2,0.5-0.3,1-0.5,1.5l-4.5-1.5l-6.5-2.2
						c0,0-2.5-10-5.9-33.5c0.5,0.8,1.4,1.5,2.9,2C431,462.2,437.5,463.2,428.5,480.2z"/>
					<path id="XMLID_26_" fill="#00364F" d="M1345.7,763.1c-1.9,2.9-5,8-9.7,10.5c-3.7,2-8.5,2.3-14.5-1.5c-13.5-8.5-25.5-8.9-31,0
						c1.9-4.8,5.8-11,12.5-14.3c1.9-1,4.1-1.7,6.5-2c3.4-0.5,7.2-0.3,11.6,0.9c4.5,1.2,9.6,3.4,15.4,7
						C1339.5,765.5,1343,765.1,1345.7,763.1z"/>
					<linearGradient id="XMLID_55_" gradientUnits="userSpaceOnUse" x1="745.2793" y1="728.4709" x2="538.2793" y2="477.4709">
						<stop  offset="0" style="stop-color:#FFFFBD"/>
						<stop  offset="0.1411" style="stop-color:#FFA28C"/>
						<stop  offset="0.2772" style="stop-color:#E87988"/>
						<stop  offset="0.6436" style="stop-color:#154666"/>
						<stop  offset="0.9247" style="stop-color:#00364F"/>
					</linearGradient>
					<path id="XMLID_20_" fill="url(#XMLID_55_)" d="M759.8,596.5c-2.3,5.5-4.8,11-7.5,16.5c-33.8-12.5-61.9-22.8-68.8-25.3
						c-20-7-29.5,0-55-8.2c-21.4-6.9-147.5-55.1-187.7-70.6c3.7-9.8,8.1-18.9,13.5-27.1c21.2,8.3,75.8,29.6,131.2,51.9
						C619.7,547.4,692.9,573.3,759.8,596.5z"/>
					<path id="XMLID_25_" fill="#00364F" d="M1336,773.6l-17.9,26.5c-2.1,2.7-4.7,3.4-7.7,3c-4.3-0.5-9.2-3.4-13.9-6
						c-5.2-2.9-10.6-5.7-13.8-7.3c1.9-4,3.5-7.6,4.7-10.4v0c1.6-3.7,2.6-6.2,3-7.3c5.5-8.9,17.5-8.5,31,0
						C1327.5,775.9,1332.2,775.6,1336,773.6L1336,773.6z"/>
					<linearGradient id="XMLID_56_" gradientUnits="userSpaceOnUse" x1="1377.4949" y1="883.8131" x2="1295.4949" y2="805.8131">
						<stop  offset="0" style="stop-color:#FFFFBD"/>
						<stop  offset="0.1411" style="stop-color:#FFA28C"/>
						<stop  offset="0.2772" style="stop-color:#E87988"/>
						<stop  offset="0.6436" style="stop-color:#154666"/>
						<stop  offset="0.9247" style="stop-color:#00364F"/>
					</linearGradient>
					<path id="XMLID_22_" fill="url(#XMLID_56_)" d="M1310.4,803.2c-1,3.1-2.4,6.6-3.9,9c-5.5,3-16,2.5-30.8-8.3c2.7-5.1,5-9.8,7-14
						c3.2,1.6,8.6,4.4,13.8,7.3C1301.2,799.8,1306.1,802.7,1310.4,803.2z"/>
					<linearGradient id="XMLID_57_" gradientUnits="userSpaceOnUse" x1="416.5318" y1="495.3718" x2="424.56" y2="495.3718">
						<stop  offset="0" style="stop-color:#FFFFBD"/>
						<stop  offset="0.1411" style="stop-color:#FFA28C"/>
						<stop  offset="0.2772" style="stop-color:#E87988"/>
						<stop  offset="0.6436" style="stop-color:#154666"/>
						<stop  offset="0.9247" style="stop-color:#00364F"/>
					</linearGradient>
					<path id="XMLID_23_" fill="url(#XMLID_57_)" d="M424.6,490.4c-1.1,3.3-2.2,7.2-3.3,11.5c0,0-3-1.1-4.3-4.1s0.3-3,3-9
						L424.6,490.4z"/>
					<path id="XMLID_270_" fill="#00364F" d="M779.4,542.8c0,2.4-0.1,4.9-0.4,7.3c-1.5,13.5-6.9,30.1-15.8,47.5
						c-2.7,5.3-5.7,10.6-9,16c-4.8,7.8-10.2,15.6-16.2,23.3c5.2-7.4,9.9-15.5,14.2-24c2.7-5.4,5.2-10.9,7.5-16.5
						c8.6-21.1,13.5-42.1,12.2-55.8c-2.7-29.1-17.6-54.5-79.5-84S572,425.2,518,437.2c-27.9,6.2-49,22-63.7,44.6
						c-5.3,8.2-9.8,17.3-13.5,27.1c-5.8,15.6-9.5,33-11.3,51.8c-5.7,60,12.3,107,62.7,137.7c-18.5-11-32.7-22.9-43.6-35.2
						c-1-1.1-1.9-2.2-2.8-3.2c-23.4-33-26.1-73.6-20.3-107.8c3.5-20.3,6.7-34.6,10.1-45.3c4-12.7,8-20.5,12.3-27.6
						c2.1-3.4,4.3-6.6,6.5-10.2c30.5-47.4,88-53.1,163.5-44c57.6,6.9,114.4,33.5,142.7,69.2c0,0.1,0.1,0.1,0.1,0.1
						c2.2,2.8,4.2,5.6,6.1,8.5c0.3,0.4,0.5,0.8,0.8,1.2c1.1,1.8,2.2,3.7,3.1,5.5c0.2,0.4,0.4,0.8,0.7,1.3c0.2,0.4,0.4,0.8,0.6,1.2
						c1.1,2.2,2,4.4,2.8,6.6c0.1,0.4,0.3,0.7,0.4,1c0.6,1.8,1.2,3.6,1.7,5.4c0.1,0.3,0.2,0.7,0.3,1c0.2,0.8,0.4,1.5,0.5,2.3
						c0.1,0.5,0.2,0.9,0.3,1.4c0.1,0.3,0.1,0.6,0.2,0.9c0.1,0.4,0.1,0.8,0.2,1.2c0.1,0.4,0.2,0.9,0.2,1.3c0,0.3,0.1,0.7,0.1,1
						c0,0.1,0,0.2,0,0.4c0,0.3,0.1,0.5,0.1,0.8c0.1,0.3,0.1,0.7,0.1,1c0,0.5,0.1,1,0.1,1.5c0,0.1,0,0.2,0,0.2c0,0.4,0,0.8,0.1,1.1
						c0,0.7,0.1,1.3,0.1,2C779.4,541.8,779.4,542.3,779.4,542.8z"/>
				</g>
				<linearGradient id="XMLID_58_" gradientUnits="userSpaceOnUse" x1="553.199" y1="425.2723" x2="645.0678" y2="709.294">
					<stop  offset="0" style="stop-color:#FFFFBD"/>
					<stop  offset="0.1411" style="stop-color:#FFA28C"/>
					<stop  offset="0.2772" style="stop-color:#E87988"/>
					<stop  offset="0.6436" style="stop-color:#154666"/>
					<stop  offset="0.9247" style="stop-color:#00364F"/>
				</linearGradient>
				<path id="XMLID_86_" opacity="0.32" fill="url(#XMLID_58_)" d="M759.8,596.5c-2.3,5.5-4.8,11-7.5,16.5
					c-4.3,8.5-9.1,16.6-14.2,24c-5.4,6.9-11.2,13.7-17.5,20.2l0,0c0,0,0,0,0,0c-39.1,40.5-95.4,71.6-162,62
					c-22.2-3.2-41.1-8.5-57.1-15.5c-21-9.1-36.9-21.1-48.7-34.8c0,0,0,0,0,0c-1.2-1.6-2.4-3.2-3.6-4.8c-0.2-0.3-0.4-0.5-0.5-0.8
					c10.9,12.3,25.1,24.1,43.6,35.2c-50.4-30.7-68.4-77.8-62.7-137.7c1.8-18.8,5.5-36.2,11.3-51.8c3.7-9.8,8.1-18.9,13.5-27.1
					c14.7-22.6,35.8-38.4,63.7-44.6c54-12,112.6-10,174.5,19.5s76.8,54.9,79.5,84C773.3,554.4,768.4,575.4,759.8,596.5z"/>
				<linearGradient id="XMLID_59_" gradientUnits="userSpaceOnUse" x1="951.189" y1="356.7188" x2="1149.189" y2="930.7188">
					<stop  offset="0" style="stop-color:#FFFFBD"/>
					<stop  offset="0.1411" style="stop-color:#FFA28C"/>
					<stop  offset="0.2772" style="stop-color:#E87988"/>
					<stop  offset="0.6436" style="stop-color:#154666"/>
					<stop  offset="0.9247" style="stop-color:#00364F"/>
				</linearGradient>
				<path id="XMLID_115_" opacity="0.32" fill="url(#XMLID_59_)" d="M1232,842.8C1232,842.8,1232,842.8,1232,842.8
					c-3.2,4.1-6.4,8-9.8,11.9c0,0-0.1,0.1-0.1,0.1c-2.9,3.3-5.8,6.5-8.8,9.6c-0.1,0.1-0.1,0.1-0.2,0.2c-18.8,19.6-39.7,35-59.2,41.6
					c-59.9,20.1-164,12-224-83.5c-57.5-91.4-18.9-191.1,3.2-214.8c41.3-34.2,98.8-37.8,181.3-9.3s132.5,88.6,148,118.6
					C1276.5,744.3,1261.2,803.3,1232,842.8z"/>
			</g>
		</g>
		<g id="XMLID_99_" clip-path="url(#XMLID_41_)">
			<linearGradient id="XMLID_60_" gradientUnits="userSpaceOnUse" x1="517.4039" y1="395.1021" x2="536.4255" y2="453.9091">
				<stop  offset="4.926108e-003" style="stop-color:#FFA88F;stop-opacity:0"/>
				<stop  offset="0.4581" style="stop-color:#FFFFE3"/>
				<stop  offset="1" style="stop-color:#FFA28C;stop-opacity:0"/>
			</linearGradient>
			<path id="XMLID_37_" fill="url(#XMLID_60_)" d="M418.3,434.2l-1.7-1.1c6.4-10.2,13.4-10.4,30.5-10.9c4-0.1,8.5-0.3,13.8-0.6
				c5.9-0.3,14.4-1.4,25.3-2.7c38.5-4.7,102.9-12.7,152.1,0.3l-0.5,1.9c-48.8-12.9-113-5-151.3-0.2c-10.8,1.3-19.4,2.4-25.4,2.7
				c-5.3,0.3-9.8,0.4-13.8,0.6C430.4,424.7,424.1,424.9,418.3,434.2z"/>
		</g>
		<g id="XMLID_151_" clip-path="url(#XMLID_41_)">
			<linearGradient id="XMLID_61_" gradientUnits="userSpaceOnUse" x1="814.373" y1="596.249" x2="1263.7598" y2="596.249">
				<stop  offset="4.926108e-003" style="stop-color:#FFA88F;stop-opacity:0"/>
				<stop  offset="0.4581" style="stop-color:#FFFFE3"/>
				<stop  offset="1" style="stop-color:#FFA28C;stop-opacity:0"/>
			</linearGradient>
			<path id="XMLID_36_" fill="url(#XMLID_61_)" d="M1262.2,671.3c-12.1-14.1-42.6-38.5-83.7-61.1c-32.1-17.7-80.9-40-131.1-46.1
				c-33.8-4.1-56.6-0.9-75,1.6c-17.3,2.4-29.8,4.1-41.8-2.2l-1.3-0.7c-23.8-12.4-63.7-33.2-114.9-39.7l0.3-2
				c51.5,6.6,91.6,27.5,115.5,39.9l1.3,0.7c11.5,6,23.7,4.3,40.6,2c17.5-2.4,41.5-5.7,75.5-1.6c50.5,6.1,99.6,28.5,131.9,46.3
				c36.3,20,69.4,44.2,84.3,61.5L1262.2,671.3z"/>
		</g>
		<g id="XMLID_793_" clip-path="url(#XMLID_41_)">
			<linearGradient id="XMLID_62_" gradientUnits="userSpaceOnUse" x1="560.2081" y1="429.2257" x2="560.2081" y2="699.2642">
				<stop  offset="4.926108e-003" style="stop-color:#FFA88F;stop-opacity:0"/>
				<stop  offset="0.4581" style="stop-color:#FFFFE3"/>
				<stop  offset="1" style="stop-color:#FFA28C;stop-opacity:0"/>
			</linearGradient>
			<path id="XMLID_35_" fill="url(#XMLID_62_)" d="M491.7,699.3c-48.5-29.6-69.2-75-63.2-138.7c1.8-19.1,5.6-36.6,11.4-52
				c3.7-10,8.3-19.2,13.6-27.3c15.5-23.9,37.2-39,64.3-45.1c61.5-13.7,118.8-7.3,175.1,19.6l-0.9,1.8
				c-55.9-26.6-112.8-33-173.9-19.4c-26.6,5.9-47.9,20.8-63.1,44.2c-5.2,8-9.7,17.1-13.4,26.9c-5.7,15.2-9.5,32.5-11.3,51.5
				c-5.9,62.9,14.4,107.6,62.2,136.8L491.7,699.3z"/>
		</g>
		<g id="XMLID_794_" clip-path="url(#XMLID_41_)">
			<linearGradient id="XMLID_63_" gradientUnits="userSpaceOnUse" x1="433.6034" y1="480.6377" x2="433.6034" y2="421.6216">
				<stop  offset="4.926108e-003" style="stop-color:#FFA88F;stop-opacity:0"/>
				<stop  offset="0.4581" style="stop-color:#FFFFE3"/>
				<stop  offset="1" style="stop-color:#FFA28C;stop-opacity:0"/>
			</linearGradient>
			<path id="XMLID_34_" fill="url(#XMLID_63_)" d="M429.4,480.6l-1.8-0.9c3.5-6.6,4.5-10.5,3.4-13.2c-1.5-3.8-7.5-5.8-17.5-9.2
				c-1.1-0.4-2.2-0.7-3.3-1.1c-1.7-0.6-2.8-1.4-3.5-2.4c-1.8-3.1,1-7.3,5.3-13.6c1.4-2.1,3-4.4,4.6-6.9
				c6.3-10.2,13.4-10.4,30.5-10.9c4-0.1,8.5-0.3,13.8-0.6l0.1,2c-5.3,0.3-9.8,0.4-13.8,0.6c-16.8,0.5-23.1,0.8-28.9,10
				c-1.6,2.6-3.2,4.9-4.6,7c-3.6,5.3-6.5,9.5-5.3,11.5c0.4,0.6,1.2,1.1,2.4,1.6c1.2,0.4,2.3,0.8,3.3,1.1
				c10.5,3.6,16.9,5.7,18.8,10.4C434.2,469.1,433.2,473.4,429.4,480.6z"/>
		</g>
		<g id="XMLID_18_" clip-path="url(#XMLID_41_)">
			<linearGradient id="XMLID_64_" gradientUnits="userSpaceOnUse" x1="876.6072" y1="618.5117" x2="1073.7334" y2="959.9443">
				<stop  offset="4.926108e-003" style="stop-color:#FFA88F;stop-opacity:0"/>
				<stop  offset="0.3153" style="stop-color:#FFFFE3"/>
				<stop  offset="1" style="stop-color:#FFA28C;stop-opacity:0"/>
			</linearGradient>
			<path id="XMLID_33_" fill="url(#XMLID_64_)" d="M1102.3,927.4c-77.3,0-138.7-34.3-187.1-104.2c-32.2-46.5-38.1-128.9-27.3-182.8
				c3.1-15.4,7.5-27.8,12.7-35.8l1.7,1.1c-5.1,7.8-9.4,20-12.5,35.1c-10.8,53.5-5,135.2,26.9,181.2
				c54.2,78.3,124.9,111.5,216.1,101.6l0.2,2C1122.6,926.8,1112.3,927.4,1102.3,927.4z"/>
		</g>
		<g id="XMLID_810_" clip-path="url(#XMLID_41_)">
			<linearGradient id="XMLID_65_" gradientUnits="userSpaceOnUse" x1="1191.4219" y1="597.6519" x2="1191.4219" y2="843.4004">
				<stop  offset="4.926108e-003" style="stop-color:#FFA88F;stop-opacity:0"/>
				<stop  offset="0.4581" style="stop-color:#FFFFE3"/>
				<stop  offset="1" style="stop-color:#FFA28C;stop-opacity:0"/>
			</linearGradient>
			<path id="XMLID_31_" fill="url(#XMLID_65_)" d="M1232.8,843.4l-1.6-1.2c29.7-40.3,43.9-98.5,30.4-124.6
				c-14.6-28.2-64.2-89.3-147.4-118.1l0.7-1.9c83.9,29,133.8,90.6,148.6,119.1C1277.2,743.4,1262.9,802.6,1232.8,843.4z"/>
		</g>
		<g id="XMLID_16_" clip-path="url(#XMLID_41_)">
			<linearGradient id="XMLID_66_" gradientUnits="userSpaceOnUse" x1="656.0952" y1="402.2521" x2="778.6783" y2="614.5723">
				<stop  offset="4.926108e-003" style="stop-color:#FFA88F;stop-opacity:0"/>
				<stop  offset="0.4581" style="stop-color:#FFFFE3"/>
				<stop  offset="1" style="stop-color:#FFA28C;stop-opacity:0"/>
			</linearGradient>
			<path id="XMLID_30_" fill="url(#XMLID_66_)" d="M738.9,637.5l-1.6-1.2c5.8-7.5,11.2-15.3,16.1-23.2c3.2-5.3,6.2-10.6,8.9-15.9
				c8.7-17.1,14.1-33.4,15.7-47.2c3.2-28.5-13-57.2-45.6-81c-30.4-22.2-72.2-37.8-114.5-42.9l0.2-2c42.7,5.1,84.7,20.9,115.4,43.3
				c33.2,24.2,49.7,53.6,46.4,82.8c-1.6,13.9-7.1,30.5-15.9,47.8c-2.7,5.3-5.7,10.7-9,16.1C750.2,622.1,744.8,630,738.9,637.5z"/>
		</g>
		<radialGradient id="XMLID_67_" cx="407.57" cy="448.5346" r="24.8868" gradientUnits="userSpaceOnUse">
			<stop  offset="0" style="stop-color:#FFFFE3"/>
			<stop  offset="1" style="stop-color:#FFA28C;stop-opacity:0"/>
		</radialGradient>
		<circle id="XMLID_139_" clip-path="url(#XMLID_41_)" fill="url(#XMLID_67_)" cx="407.6" cy="448.5" r="24.9"/>
		<g id="XMLID_157_" clip-path="url(#XMLID_41_)">
			<defs>
				<path id="XMLID_162_" d="M759.8,596.5c8.6-21.1,13.5-42.1,12.2-55.8c-2.7-29.1-17.6-54.5-79.5-84S572,425.2,518,437.2
					c-27.9,6.2-49,22-63.7,44.6c-5.3,8.2-9.8,17.3-13.5,27.1c-4.9,13.1-8.3,27.4-10.3,42.8c5.6,6.7,12.6,12.5,20.5,17.3
					c93.7,53.7,196.9,54,299.5,47.5c0.6-1.2,1.2-2.4,1.8-3.6C755,607.5,757.5,602,759.8,596.5z"/>
			</defs>
			<clipPath id="XMLID_68_">
				<use xlink:href="#XMLID_162_"  overflow="visible"/>
			</clipPath>
			<radialGradient id="XMLID_69_" cx="407.1591" cy="436.7527" r="257.6371" gradientUnits="userSpaceOnUse">
				<stop  offset="0" style="stop-color:#FFFFE3"/>
				<stop  offset="1" style="stop-color:#FFA28C;stop-opacity:0"/>
			</radialGradient>
			<circle id="XMLID_156_" clip-path="url(#XMLID_68_)" fill="url(#XMLID_69_)" cx="407.2" cy="436.8" r="257.6"/>
		</g>
		<g id="XMLID_232_" clip-path="url(#XMLID_41_)">
			<defs>
				<path id="XMLID_175_" d="M1262.5,717.2c-15.5-30-65.5-90-148-118.6s-140-24.9-181.3,9.3c-12,12.9-29,48.4-32.6,92.9
					c18.3,33.5,44.8,62.4,78.4,84.2c79.1,49.3,167.7,53.6,254.6,55.6C1261.7,801.1,1276.3,743.8,1262.5,717.2z"/>
			</defs>
			<clipPath id="XMLID_70_">
				<use xlink:href="#XMLID_175_"  overflow="visible"/>
			</clipPath>
			<radialGradient id="XMLID_71_" cx="814.5" cy="318.6906" r="544.9724" gradientUnits="userSpaceOnUse">
				<stop  offset="0" style="stop-color:#FFFFE3"/>
				<stop  offset="1" style="stop-color:#FFA28C;stop-opacity:0"/>
			</radialGradient>
			<circle id="XMLID_153_" clip-path="url(#XMLID_70_)" fill="url(#XMLID_71_)" cx="814.5" cy="318.7" r="545"/>
		</g>
		<polygon id="XMLID_941_" clip-path="url(#XMLID_41_)" fill="#00364F" points="692,1356.2 759.8,1400 1659,973.1 1617.7,909.7 		
			"/>
		<radialGradient id="XMLID_72_" cx="1056.8655" cy="-124.0379" r="714.1798" gradientUnits="userSpaceOnUse">
			<stop  offset="0" style="stop-color:#FFFFBD"/>
			<stop  offset="0.1411" style="stop-color:#FFA28C"/>
			<stop  offset="0.2772" style="stop-color:#E87988"/>
			<stop  offset="0.6436" style="stop-color:#154666"/>
			<stop  offset="0.9247" style="stop-color:#00364F"/>
		</radialGradient>
		<path id="XMLID_396_" clip-path="url(#XMLID_41_)" fill="url(#XMLID_72_)" d="M1300.1-59c-92.6,0-207.1,0-207.1,0
			c0,162,80,374,112,416c67.2,22.4,135.2,30,173.8,32.5c-20.2-53.3-37.1-107.8-52.8-164.5C1300.1,129.6,1301.5,35.4,1300.1-59z"/>
		<path id="XMLID_397_" clip-path="url(#XMLID_41_)" fill="#00364F" d="M1411-59c-14.3,0-59.2,0-110.9,0c1.4,94.4,0,188.6,25.9,284
			c15.7,56.7,32.7,111.3,52.8,164.5c20,1.3,32.2,1.3,32.2,1.3S1451-59,1411-59z"/>
		<radialGradient id="XMLID_73_" cx="1017.7505" cy="-257.1353" r="577.3887" gradientUnits="userSpaceOnUse">
			<stop  offset="0" style="stop-color:#FFFFBD"/>
			<stop  offset="0.1411" style="stop-color:#FFA28C"/>
			<stop  offset="0.2772" style="stop-color:#E87988"/>
			<stop  offset="0.6436" style="stop-color:#154666"/>
			<stop  offset="0.9247" style="stop-color:#00364F"/>
		</radialGradient>
		<path id="XMLID_380_" clip-path="url(#XMLID_41_)" fill="url(#XMLID_73_)" d="M1146-199.3c-8,4-72,54-94,130s-12,268.7-12,268.7
			s26-194.7,68-262.7s88-108,88-108L1146-199.3z"/>
		<g id="XMLID_387_" clip-path="url(#XMLID_41_)">
			<path id="XMLID_19_" fill="#00364F" d="M1241,214.8c-0.7-1.3-45.1-88-49.7-150.6c-4.7-63.1,55.1-196.3,54.8-194.4
				c0,0,5.9,2.4,12.6,5.7c-15.5,52.3-39.2,135.4-43.7,170.8C1208,99.9,1240.9,207,1241,214.8z"/>
			<path id="XMLID_14_" fill="#00364F" d="M1241,214.8C1241,214.8,1241,214.8,1241,214.8c-0.1-7.7-33-114.9-26-168.5
				c4.6-35.4,28.2-118.5,43.7-170.8c9.3,4.7,20.1,11.2,18.2,15.7c-3.2,7.8-35.1,128.7-35.7,159.9C1240.6,82.4,1241,214.8,1241,214.8
				z"/>
		</g>
		<g id="XMLID_384_" clip-path="url(#XMLID_41_)">
			<path id="XMLID_5_" fill="#00364F" d="M1273.3,145.2c-0.4-1.5-23.2-98-13.8-162c9.5-64.5,95.6-186.6,94.8-184.7
				c0,0,5.1,3.6,10.7,8.4c-26.3,49.6-67,128.4-79.2,163.1C1267.5,22.7,1274.9,137.5,1273.3,145.2z"/>
			<path id="XMLID_4_" fill="#00364F" d="M1273.3,145.3C1273.3,145.2,1273.3,145.2,1273.3,145.3c1.6-7.8-5.8-122.6,12.6-175.2
				c12.2-34.8,52.9-113.6,79.2-163.1c7.8,6.6,16.5,15.4,13.8,19.6c-4.7,7.2-61.7,122.5-69.1,153.9S1273.3,145.3,1273.3,145.3z"/>
		</g>
		<g id="XMLID_379_" clip-path="url(#XMLID_41_)">
			<radialGradient id="XMLID_74_" cx="1156.5502" cy="-190.3186" r="487.527" gradientUnits="userSpaceOnUse">
				<stop  offset="0" style="stop-color:#FFFFBD"/>
				<stop  offset="0.1411" style="stop-color:#FFA28C"/>
				<stop  offset="0.2772" style="stop-color:#E87988"/>
				<stop  offset="0.6436" style="stop-color:#154666"/>
				<stop  offset="0.9247" style="stop-color:#00364F"/>
			</radialGradient>
			<path id="XMLID_389_" fill="url(#XMLID_74_)" d="M1241,214.8c-0.9-1.4-58.1-90.3-72-154.4c-14-64.7,26-201.3,26-199.3
				c0,0,6.3,2.4,13.4,5.9C1200.7-79.5,1189.3,5.7,1190,42C1191,97,1239.8,206.8,1241,214.8z"/>
			<radialGradient id="XMLID_75_" cx="1092" cy="-240" r="503.2544" gradientUnits="userSpaceOnUse">
				<stop  offset="0" style="stop-color:#FFFFBD"/>
				<stop  offset="0.1411" style="stop-color:#FFA28C"/>
				<stop  offset="0.2772" style="stop-color:#E87988"/>
				<stop  offset="0.6436" style="stop-color:#154666"/>
				<stop  offset="0.9247" style="stop-color:#00364F"/>
			</radialGradient>
			<path id="XMLID_390_" fill="url(#XMLID_75_)" d="M1241,214.8C1241,214.8,1241,214.8,1241,214.8c-1.2-7.9-50-117.8-51-172.8
				c-0.7-36.3,10.7-121.5,18.4-175.1c10,4.8,21.7,11.5,20.6,16.1c-2,8-16,132-12,164S1241,214.8,1241,214.8z"/>
		</g>
		<g id="XMLID_383_" clip-path="url(#XMLID_41_)">
			
				<radialGradient id="XMLID_76_" cx="1214.8977" cy="-269.0015" r="487.527" gradientTransform="matrix(0.9775 0.2111 -0.2111 0.9775 21.6818 -263.8694)" gradientUnits="userSpaceOnUse">
				<stop  offset="0" style="stop-color:#FFFFBD"/>
				<stop  offset="0.1411" style="stop-color:#FFA28C"/>
				<stop  offset="0.2772" style="stop-color:#E87988"/>
				<stop  offset="0.6436" style="stop-color:#154666"/>
				<stop  offset="0.9247" style="stop-color:#00364F"/>
			</radialGradient>
			<path id="XMLID_382_" fill="url(#XMLID_76_)" d="M1263,143.5c-0.6-1.5-37.7-100.5-37.8-166.1c0-66.2,67.9-191.3,67.5-189.3
				c0,0,5.6,3.7,11.9,8.6c-18.9,50.8-48,131.6-55,167.3C1239,17.8,1263.5,135.5,1263,143.5z"/>
			
				<radialGradient id="XMLID_77_" cx="1150.3474" cy="-318.6829" r="503.2544" gradientTransform="matrix(0.9775 0.2111 -0.2111 0.9775 21.6818 -263.8694)" gradientUnits="userSpaceOnUse">
				<stop  offset="0" style="stop-color:#FFFFBD"/>
				<stop  offset="0.1411" style="stop-color:#FFA28C"/>
				<stop  offset="0.2772" style="stop-color:#E87988"/>
				<stop  offset="0.6436" style="stop-color:#154666"/>
				<stop  offset="0.9247" style="stop-color:#00364F"/>
			</radialGradient>
			<path id="XMLID_381_" fill="url(#XMLID_77_)" d="M1263,143.5C1263,143.5,1263,143.5,1263,143.5c0.5-8-24-125.7-13.4-179.6
				c7-35.6,36.1-116.5,55-167.3c8.8,6.8,18.8,15.8,16.7,20.1c-3.6,7.4-43.5,125.6-46.4,157.8C1272.1,6.6,1263,143.5,1263,143.5z"/>
		</g>
	</g>
</g>
</svg>
